<?xml version="1.0" encoding="UTF-8" standalone="no"?>
<!-- Created with Inkscape (http://www.inkscape.org/) -->

<svg
   width="144.69409mm"
   height="194.40715mm"
   viewBox="0 0 144.69409 194.40715"
   version="1.1"
   id="svg5"
   inkscape:version="1.1.1 (3bf5ae0d25, 2021-09-20)"
   sodipodi:docname="logo.svg"
   xmlns:inkscape="http://www.inkscape.org/namespaces/inkscape"
   xmlns:sodipodi="http://sodipodi.sourceforge.net/DTD/sodipodi-0.dtd"
   xmlns="http://www.w3.org/2000/svg"
   xmlns:svg="http://www.w3.org/2000/svg">
  <sodipodi:namedview
     id="namedview7"
     pagecolor="#505050"
     bordercolor="#eeeeee"
     borderopacity="1"
     inkscape:pageshadow="0"
     inkscape:pageopacity="0"
     inkscape:pagecheckerboard="0"
     inkscape:document-units="mm"
     showgrid="false"
     inkscape:zoom="0.7500982"
     inkscape:cx="72.657153"
     inkscape:cy="360.61945"
     inkscape:window-width="1920"
     inkscape:window-height="1027"
     inkscape:window-x="-8"
     inkscape:window-y="22"
     inkscape:window-maximized="1"
     inkscape:current-layer="layer1" />
  <defs
     id="defs2" />
  <g
     inkscape:label="Réteg 1"
     inkscape:groupmode="layer"
     id="layer1"
     transform="translate(-85.560798,3.2302333)">
    <path
       style="fill:#142c40;fill-opacity:1;stroke-width:0.264583"
       d="m 140.95813,185.68026 c -9.02229,-3.01405 -18.21692,-6.05576 -20.43251,-6.75935 l -4.02835,-1.27926 -0.20499,-0.96318 c -0.32228,-1.51433 -0.16768,-5.47718 0.32659,-8.37152 0.55154,-3.22968 1.61677,-6.23266 3.09134,-8.71473 1.50253,-2.52913 5.10358,-6.07047 7.55002,-7.42485 1.05143,-0.58208 1.90783,-1.11787 1.9031,-1.19063 -0.005,-0.0728 -0.74611,-0.60243 -1.64752,-1.17706 -8.62892,-5.50069 -17.82046,-14.45496 -23.77841,-23.1646 -5.273903,-7.70966 -9.17107,-16.89538 -11.451558,-26.991601 -0.345639,-1.530221 -0.70385,-3.316158 -0.796026,-3.96875 -0.09217,-0.652592 -0.217225,-1.365123 -0.277894,-1.583404 C 89.967957,89.615572 89.770213,57.788519 90.937395,49.90591 92.2937,40.746075 94.702715,34.674179 99.738254,27.723456 100.01031,27.347933 99.778746,26.966809 98.184666,25.16643 97.154357,24.00278 95.44267,21.908476 94.380918,20.512418 90.176777,14.98455 88.065994,11.142576 86.991561,7.0625553 86.260094,4.2849173 85.443225,-1.186425 85.574868,-2.4263603 l 0.08535,-0.803873 6.35,3.83567496 c 3.492499,2.10962074 10.120822,6.20713004 14.729602,9.10557414 4.60879,2.8984412 8.45687,5.2698962 8.55129,5.2698962 0.0944,0 0.66938,-0.341897 1.27768,-0.759769 1.79979,-1.236364 6.3116,-3.661378 9.36886,-5.035587 5.68905,-2.5571766 12.03306,-4.358489 19.1407,-5.434798 9.57698,-1.4502421 20.90757,-1.1556762 30.37922,0.7897812 5.11379,1.050364 10.95978,2.8905251 15.10993,4.7562079 2.94493,1.3238799 8.53669,4.4150809 9.59035,5.3016759 l 0.73357,0.617257 3.37085,-2.137413 c 1.85397,-1.175578 4.74007,-2.995432 6.41356,-4.0441214 1.67349,-1.0486866 4.70959,-2.9584332 6.74688,-4.2438795 5.16822,-3.2609338 12.56594,-7.8010196 12.71116,-7.8010196 0.23799,0 0.1117,2.29060626 -0.26256,4.7624998 -0.9262,6.1171902 -2.19239,9.8412747 -4.74573,13.9579947 -1.66821,2.689624 -5.01237,7.091955 -6.97556,9.182761 -2.50916,2.672273 -2.45649,2.147215 -0.48277,4.812514 0.95368,1.287835 2.32799,3.532145 3.05403,4.987353 1.2844,2.57434 3.00592,7.408143 3.33156,9.354592 0.0887,0.530286 0.26521,1.321345 0.39222,1.757908 1.00091,3.440578 1.56356,13.901789 1.57957,29.368748 0.0118,11.410873 -0.39681,15.959632 -2.16289,24.077082 -4.53024,20.822441 -16.07609,37.328041 -35.44773,50.675021 l -1.75662,1.2103 1.35975,0.71583 c 7.43194,3.91252 11.84935,11.94249 11.91901,21.66639 0.0156,2.17958 -0.0812,3.46482 -0.2757,3.65996 -0.35156,0.35274 -41.24033,14.02307 -41.87089,13.99868 -0.235,-0.009 -7.80914,-2.48257 -16.83143,-5.49662 z m 24.60625,-5.20775 c 3.92906,-1.26744 7.4414,-2.38982 7.80521,-2.49419 0.48469,-0.13905 0.65331,-0.36073 0.63098,-0.82952 -0.0485,-1.01894 -0.36555,-3.78907 -0.89075,-7.78352 -0.26787,-2.03729 -0.69215,-5.31151 -0.94286,-7.27604 -0.2507,-1.96453 -0.54253,-3.66859 -0.64852,-3.78681 -0.10598,-0.11822 -1.36994,0.19435 -2.80879,0.69459 -4.79433,1.66681 -9.25732,2.8242 -11.04753,2.86495 -1.63104,0.0371 -7.46956,-1.30428 -10.56644,-2.42763 -1.28101,-0.46467 -2.39989,-0.77408 -2.4864,-0.68757 -0.14474,0.14475 -2.2015,14.16771 -2.5807,17.59525 l -0.16484,1.48993 7.88157,2.55751 c 4.33486,1.40663 8.06016,2.51925 8.27844,2.47249 0.21828,-0.0468 3.61157,-1.12201 7.54063,-2.38944 z m -30.82975,-8.12121 c 0.45144,-3.96806 0.50036,-4.344 1.30071,-9.99747 0.40173,-2.83766 0.69786,-5.20256 0.65807,-5.25534 -0.17823,-0.23641 -3.05001,0.63146 -4.75272,1.4363 -1.42165,0.67199 -2.31529,1.35227 -3.70416,2.81977 -2.77042,2.92727 -4.07944,6.05585 -4.07944,9.7499 v 1.76029 l 4.96094,1.70994 4.96093,1.70995 0.17303,-0.60596 c 0.0952,-0.33328 0.31236,-1.8306 0.48264,-3.32738 z m 57.31644,-1.52901 c -0.28813,-3.83004 -1.48014,-6.52032 -4.15687,-9.38176 -1.73195,-1.85146 -3.84227,-3.10208 -6.53292,-3.87154 -2.2219,-0.6354 -2.2661,-0.63352 -2.07507,0.0885 0.14246,0.5384 0.37819,2.28029 1.24432,9.19427 0.41208,3.28959 0.49478,3.97266 0.64063,5.29167 0.26958,2.43788 0.46363,3.84093 0.55213,3.99195 0.0501,0.0855 2.42798,-0.62804 5.28416,-1.5857 l 5.19304,-1.74119 z m -39.68474,-19.25023 c -0.083,-0.69123 -0.22086,-2.09021 -0.30645,-3.10886 -1.16009,-13.80675 -3.16342,-23.52825 -6.51554,-31.6177 -2.52202,-6.08623 -7.22297,-13.12862 -11.5014,-17.229998 -3.99543,-3.830098 -9.20632,-6.7789 -16.10356,-9.112872 -4.63781,-1.5694 -7.76788,-2.913123 -9.79912,-4.206705 -3.70129,-2.357147 -8.32643,-6.538997 -9.59447,-8.674912 -0.237577,-0.400182 -0.533072,-0.727604 -0.656656,-0.727604 -0.422227,0 0.228767,10.879848 1.02112,17.065624 0.25183,1.965997 1.977986,8.582117 3.055016,11.709487 3.71006,10.77281 8.63241,18.76604 16.47052,26.74585 6.84309,6.96681 13.81483,11.86711 22.73022,15.97663 2.99961,1.38266 10.45042,4.33739 11.12788,4.41293 0.1228,0.0137 0.15539,-0.54065 0.0724,-1.23187 z m 16.47243,-0.8913 c 7.47825,-2.75404 15.84333,-7.32859 21.59176,-11.80772 3.94844,-3.0766 10.30839,-9.53112 13.28457,-13.48211 6.52347,-8.66016 10.84792,-18.51988 13.03164,-29.712105 1.05996,-5.432629 1.32075,-7.863814 1.5042,-14.022916 0.14872,-4.992894 0.13852,-5.138031 -0.3162,-4.497917 -1.17003,1.647068 -3.50268,4.108408 -5.23475,5.523534 -4.22426,3.451291 -7.77093,5.344051 -14.21023,7.58363 -7.4507,2.59134 -11.55973,4.961562 -16.12248,9.299977 -7.51195,7.142637 -12.72039,16.799077 -15.46283,28.668097 -0.95891,4.15005 -3.05985,20.26343 -3.05985,23.4678 0,0.81069 0.0504,0.80039 4.99417,-1.02027 z m -9.41802,-24.74669 c 0.076,-0.12377 0.20582,-0.65249 0.28848,-1.17492 0.22947,-1.45031 1.91605,-6.86232 2.98692,-9.58465 4.02959,-10.24385 12.35061,-20.813732 20.95975,-26.624392 2.40915,-1.626031 5.86049,-3.184966 10.88036,-4.914542 9.22865,-3.179699 13.66472,-6.123419 17.92919,-11.897574 1.34043,-1.814965 3.21607,-5.575286 4.00912,-8.037554 2.44918,-7.604302 1.46707,-16.402732 -2.78823,-24.978941 -1.13132,-2.280087 -2.93629,-5.430694 -3.4232,-5.975273 -0.0462,-0.05173 -0.77599,0.430257 -1.62164,1.071091 -1.5159,1.148763 -3.24398,2.308598 -5.70316,3.827799 l -1.25521,0.775427 1.89677,1.837182 c 6.36126,6.161397 8.15559,15.475616 4.55234,23.630834 -3.48492,7.887411 -12.4404,13.471886 -20.72204,12.921884 -6.01917,-0.399743 -11.60631,-3.139922 -15.12762,-7.419242 l -1.39762,-1.698482 -1.16664,1.888368 c -0.64165,1.038601 -2.36175,3.852897 -3.82245,6.25399 -4.02703,6.619632 -7.60019,11.942011 -7.89494,11.759851 -0.64327,-0.397569 -11.184,-17.079065 -12.19753,-19.303523 -0.25237,-0.553897 -0.41555,-0.438256 -2.95307,2.092827 -2.20268,2.197092 -3.12151,2.905393 -5.10683,3.936738 -2.85904,1.485228 -5.465,2.205591 -8.86186,2.449679 -2.12154,0.152448 -2.90303,0.08103 -5.46444,-0.499406 -10.27907,-2.329301 -17.26752,-10.848437 -17.24717,-21.024817 0.0114,-5.67395 2.35504,-11.15137 6.45678,-15.090071 0.95739,-0.919329 1.74071,-1.702731 1.74071,-1.740894 0,-0.03816 -0.98227,-0.67055 -2.18282,-1.405306 -1.20054,-0.734755 -3.06771,-1.985144 -4.14925,-2.778638 l -1.96645,-1.44272 -0.93177,1.348664 c -2.43487,3.52426 -4.794,8.798787 -5.856549,13.094027 -0.783284,3.166327 -1.167268,8.537239 -0.804987,11.259608 0.882885,6.634487 3.609626,12.209877 8.223496,16.814661 3.92919,3.921456 7.1251,5.701046 15.20895,8.468865 7.38237,2.527642 9.52516,3.642977 14.06499,7.320931 4.40989,3.572679 8.90449,8.821086 12.68345,14.810649 3.86452,6.12516 6.85303,14.07137 8.49252,22.58096 0.3785,1.96453 0.74588,3.75047 0.8164,3.96875 0.0705,0.21828 0.39572,-1.1092 0.72266,-2.94997 0.32693,-1.84076 0.6566,-3.4481 0.73259,-3.57187 z m 1.9693,-57.487703 c 1.36255,-2.266365 3.14669,-5.468059 3.96474,-7.114873 1.389,-2.796154 1.50087,-3.163679 1.69131,-5.55625 0.27782,-3.490516 0.61857,-4.883639 1.77379,-7.251996 l 0.98636,-2.022179 -1.57619,-0.277643 -1.5762,-0.27764 -1.60307,1.374441 c -0.88169,0.755944 -2.81879,2.490774 -4.30468,3.85518 l -2.70161,2.480739 -3.64839,-3.275364 c -5.16682,-4.638553 -4.84919,-4.432827 -6.35636,-4.116914 -0.69343,0.145349 -1.29295,0.29246 -1.33228,0.326914 -0.0393,0.03446 0.34471,0.943284 0.85341,2.019617 1.09683,2.320726 1.77342,5.310063 1.70282,7.523538 -0.0756,2.369791 1.30673,5.299241 6.58923,13.964054 2.18201,3.579135 2.23734,3.643209 2.6442,3.062332 0.22856,-0.32631 1.53037,-2.447591 2.89292,-4.713956 z m -29.42774,0.126658 c 4.12903,-1.266422 7.64011,-4.789878 8.8972,-8.928578 0.74428,-2.450386 0.61782,-6.028505 -0.28593,-8.090212 -0.93197,-2.126099 -4.19398,-4.818467 -6.6269,-5.469644 -0.51514,-0.137879 -0.45661,-0.05349 0.26458,0.381511 0.50933,0.307202 1.37427,1.164714 1.92209,1.905582 3.40233,4.601228 1.71889,11.233493 -3.46847,13.66484 -1.27131,0.595868 -1.85441,0.701357 -3.87757,0.701505 -2.11123,1.54e-4 -2.55551,-0.08812 -3.9179,-0.77843 -4.04655,-2.050354 -5.80466,-6.703327 -4.16927,-11.034273 1.14152,-3.02305 4.26887,-5.388023 7.60405,-5.750346 l 1.50836,-0.163861 -1.96783,-0.626124 c -1.08231,-0.344368 -2.66377,-0.906179 -3.51436,-1.248468 l -1.54654,-0.622342 -1.23159,0.630984 c -3.61815,1.853697 -5.99568,4.566298 -7.11012,8.112167 -0.59575,1.895538 -0.58494,5.934596 0.0213,7.937624 0.49659,1.640887 1.93428,4.185795 3.03078,5.364889 1.97527,2.124067 5.15162,3.877014 7.98588,4.407204 1.60715,0.300641 4.86257,0.102759 6.48229,-0.394028 z m 60.91025,-0.234026 c 4.18536,-1.46244 7.19392,-4.546235 8.72193,-8.940043 1.11438,-3.204387 0.80716,-7.580527 -0.74596,-10.625595 -0.88331,-1.731838 -3.8001,-4.470585 -5.7831,-5.430091 l -1.71979,-0.832149 -3.175,1.173612 c -1.74625,0.645488 -3.44289,1.178222 -3.77032,1.183855 -0.32742,0.0056 -0.59469,0.09954 -0.59394,0.208677 8e-4,0.10914 0.80443,0.208264 1.78594,0.220273 2.27167,0.0278 4.32966,0.921837 6.0254,2.61757 4.39191,4.391909 3.25717,11.554735 -2.23884,14.132345 -2.02603,0.950199 -5.57457,0.992119 -7.53717,0.08904 -4.04402,-1.860833 -6.11515,-5.973958 -5.19396,-10.314818 0.37628,-1.773126 1.86407,-4.156715 3.09046,-4.95123 0.4554,-0.295026 1.05071,-0.679407 1.32292,-0.854178 0.27382,-0.17581 -0.0787,-0.131008 -0.78907,0.10029 -1.84825,0.601782 -4.36919,2.389497 -5.53007,3.921644 -1.25937,1.662128 -1.86744,3.671186 -1.88189,6.217708 -0.0409,7.205011 6.43839,13.21827 13.85533,12.858831 1.48348,-0.07189 2.89844,-0.335931 4.15713,-0.775741 z M 161.94729,38.885602 c 10.43107,-6.151303 15.13319,-9.047847 22.84993,-14.075777 4.61171,-3.004809 8.39194,-5.524013 8.40052,-5.598231 0.0278,-0.240218 -5.05572,-2.930835 -6.97942,-3.694109 -1.90854,-0.757259 -2.31727,-0.889625 -6.23415,-2.018872 -2.31467,-0.667329 -7.7199,-1.898292 -9.12921,-2.079048 -4.86043,-0.623387 -7.2566,-0.762357 -12.9635,-0.751829 -9.48925,0.01751 -16.35391,1.007083 -23.68021,3.413619 -3.43566,1.128546 -11.1125,4.687437 -11.1125,5.151628 0,0.1237 0.98227,0.829336 2.18282,1.568077 1.20054,0.73874 4.96035,3.179725 8.35513,5.424407 3.39478,2.244683 9.22884,5.916435 12.96458,8.159446 3.73575,2.24301 7.74476,4.681188 8.90893,5.418169 1.16417,0.736983 2.21538,1.347081 2.33604,1.355775 0.12065,0.0087 1.96612,-1.014272 4.10104,-2.273255 z m -30.64645,-4.743751 c -7.65994,-5.069798 -16.95042,-10.916004 -25.4,-15.983407 -2.98318,-1.789078 -5.69185,-3.428206 -6.019272,-3.642505 -1.939464,-1.269392 1.422392,3.050158 5.735032,7.368769 4.04885,4.054456 6.54427,5.999893 10.90322,8.500187 5.63732,3.233557 10.31488,5.341696 15.57477,7.019408 3.75994,1.19929 4.28206,1.333143 5.29166,1.356614 0.81304,0.01889 0.0704,-0.544782 -6.08541,-4.619066 z m 49.74698,4.10479 c 8.25182,-2.27979 18.76619,-7.342748 24.29111,-11.696839 2.80652,-2.211774 8.40491,-7.893452 9.90024,-10.047536 0.68188,-0.982265 1.17062,-1.785937 1.08609,-1.785937 -0.0845,0 -3.20593,1.860168 -6.93645,4.133709 -3.73052,2.273538 -7.67574,4.675116 -8.76714,5.336836 -1.09141,0.66172 -2.57969,1.58065 -3.30729,2.042067 -0.72761,0.461415 -2.9898,1.890758 -5.02709,3.176321 -7.04538,4.445738 -14.28515,9.388149 -13.752,9.388149 0.29341,0 1.42405,-0.246047 2.51253,-0.54677 z"
       id="path854" />
  </g>
</svg>
